<svg width="24" height="24" viewBox="0 0 24 24" fill="none" xmlns="http://www.w3.org/2000/svg">
<path d="M6.80551 14.011L6.03128 14.6439C6.0496 14.6663 6.06889 14.6879 6.08909 14.7086L6.80551 14.011ZM6.25044 13.3319L7.02467 12.699L6.99705 12.6652L6.9666 12.634L6.25044 13.3319ZM4.38599 13.3319L5.10215 14.0299L4.38599 13.3319ZM4.28592 15.1297L5.10463 14.5555L5.09113 14.5362L5.07675 14.5177L4.28592 15.1297ZM7.71061 20.0127L6.8919 20.5869L6.95502 20.6677L7.71061 20.0127ZM12.7095 6.16667C12.7095 6.71895 13.1573 7.16667 13.7095 7.16667C14.2618 7.16667 14.7095 6.71895 14.7095 6.16667H12.7095ZM7.41909 13.3251C7.41909 13.3341 7.4179 13.3352 7.41923 13.331C7.42048 13.3269 7.42285 13.3217 7.42637 13.3166C7.43291 13.3071 7.43959 13.3029 7.44431 13.3009C7.44903 13.2989 7.46226 13.2948 7.48378 13.2986C7.49486 13.3005 7.50544 13.3043 7.51416 13.3089C7.52309 13.3136 7.52536 13.3168 7.52193 13.3133L6.08909 14.7086C7.34931 16.0027 9.41909 15.0302 9.41909 13.3251H7.41909ZM7.57974 13.3781L7.02467 12.699L5.4762 13.9648L6.03128 14.6439L7.57974 13.3781ZM6.9666 12.634C6.05916 11.7029 4.57727 11.7029 3.66983 12.634L5.10215 14.0299C5.22458 13.9042 5.41185 13.9042 5.53428 14.0299L6.9666 12.634ZM3.66983 12.634C2.84684 13.4785 2.77475 14.8109 3.49509 15.7417L5.07675 14.5177C4.96384 14.3718 4.97815 14.1571 5.10215 14.0299L3.66983 12.634ZM3.46721 15.7039L6.8919 20.5869L8.52932 19.4385L5.10463 14.5555L3.46721 15.7039ZM6.95502 20.6677C8.47867 22.4253 10.3457 23 12.3869 23V21C10.7751 21 9.52133 20.5747 8.4662 19.3576L6.95502 20.6677ZM12.3869 23C16.6155 23 20 19.4896 20 15.2143H18C18 18.434 15.4627 21 12.3869 21V23ZM20 15.2143V8.88095H18V15.2143H20ZM20 8.88095C20 7.60352 18.9843 6.52381 17.6774 6.52381V8.52381C17.8315 8.52381 18 8.65919 18 8.88095H20ZM17.6774 6.52381C16.3704 6.52381 15.3548 7.60352 15.3548 8.88095H17.3548C17.3548 8.65919 17.5233 8.52381 17.6774 8.52381V6.52381ZM15.3548 8.88095V12H17.3548V8.88095H15.3548ZM17.3548 12V6.16667H15.3548V12H17.3548ZM17.3548 6.16667C17.3548 4.88924 16.3391 3.80952 15.0322 3.80952V5.80952C15.1863 5.80952 15.3548 5.94491 15.3548 6.16667H17.3548ZM15.0322 3.80952C13.7252 3.80952 12.7095 4.88924 12.7095 6.16667H14.7095C14.7095 5.94491 14.8781 5.80952 15.0322 5.80952V3.80952ZM14.7095 12V10.2381H12.7095V12H14.7095ZM14.7095 10.2381V4.35714H12.7095V10.2381H14.7095ZM14.7095 4.35714C14.7095 3.07971 13.6939 2 12.3869 2V4C12.541 4 12.7095 4.13538 12.7095 4.35714H14.7095ZM12.3869 2C11.08 2 10.0643 3.07971 10.0643 4.35714H12.0643C12.0643 4.13538 12.2328 4 12.3869 4V2ZM10.0643 4.35714V10.2381H12.0643V4.35714H10.0643ZM10.0643 10.2381V12H12.0643V10.2381H10.0643ZM12.0643 12V5.2619H10.0643V12H12.0643ZM12.0643 5.2619C12.0643 3.98448 11.0486 2.90476 9.7417 2.90476V4.90476C9.8958 4.90476 10.0643 5.04014 10.0643 5.2619H12.0643ZM9.7417 2.90476C8.43475 2.90476 7.41909 3.98448 7.41909 5.2619H9.41909C9.41909 5.04014 9.5876 4.90476 9.7417 4.90476V2.90476ZM7.41909 5.2619V11.1429H9.41909V5.2619H7.41909ZM7.41909 11.1429V13.3251H9.41909V11.1429H7.41909Z" fill="#2A2A2A"/>
</svg>
