<svg width="16" height="22" viewBox="0 0 16 22" fill="none" xmlns="http://www.w3.org/2000/svg">
<path fill-rule="evenodd" clip-rule="evenodd" d="M7.99886 13.8942C9.89599 13.8942 11.416 12.3426 11.416 10.4206L11.4274 3.47354C11.4274 1.55152 9.89599 0 7.99886 0C6.10173 0 4.57031 1.55152 4.57031 3.47354V10.4206C4.57031 12.3426 6.10173 13.8942 7.99886 13.8942ZM6.62812 3.3586C6.62812 2.59442 7.24526 1.96919 7.99954 1.96919C8.75383 1.96919 9.37097 2.59442 9.37097 3.3586L9.35954 10.5372C9.35954 11.3014 8.75383 11.9267 7.99954 11.9267C7.24526 11.9267 6.62812 11.3014 6.62812 10.5372V3.3586ZM14.0571 10.4216C14.0571 13.8952 11.1542 16.3266 7.99995 16.3266C4.84568 16.3266 1.94284 13.8952 1.94284 10.4216H0C0 14.3699 3.10855 17.635 6.8571 18.2024V22.0001H9.1428V18.2024C12.8913 17.6466 15.9999 14.3815 15.9999 10.4216H14.0571Z" fill="black"/>
</svg>
