<svg width="24" height="24" viewBox="0 0 24 24" fill="none" xmlns="http://www.w3.org/2000/svg">
<path d="M19.5647 13.9411C19.8458 13.1504 20 12.3029 20 11.4211H18.0571C18.0571 11.7372 18.0331 12.0448 17.987 12.3426L19.5647 13.9411Z" fill="white"/>
<path d="M15.4201 9.74197L15.4288 4.47368C15.4288 2.55158 13.8974 1 12.0002 1C10.5892 1 9.38042 1.85835 8.85365 3.08909L10.6295 4.88827V4.35835C10.6295 3.59414 11.2466 2.96887 12.0009 2.96887C12.7552 2.96887 13.3723 3.59414 13.3723 4.35835L13.3671 7.66189L15.4201 9.74197Z" fill="white"/>
<path d="M13.3626 10.4858L15.2744 12.4227C14.8539 13.8547 13.5535 14.8947 12.0002 14.8947C10.1031 14.8947 8.57165 13.3432 8.57165 11.4211V5.63181L10.6295 7.71669V11.5373C10.6295 12.3015 11.2466 12.9268 12.0009 12.9268C12.7552 12.9268 13.3609 12.3015 13.3609 11.5373L13.3626 10.4858Z" fill="white"/>
<path d="M17.2387 14.4129L18.6058 15.7979C17.3468 17.6009 15.3564 18.8739 13.1429 19.2021V23H10.8571V19.2021C7.10857 18.6347 4 15.3695 4 11.4211H5.94286C5.94286 14.8947 8.84571 17.3263 12 17.3263C14.1359 17.3263 16.1566 16.2114 17.2387 14.4129Z" fill="white"/>
<path d="M5 2.58582L20.9142 18.5" stroke="white" stroke-width="2"/>
</svg>
