<svg width="24" height="24" viewBox="0 0 24 24" fill="none" xmlns="http://www.w3.org/2000/svg">
<path fill-rule="evenodd" clip-rule="evenodd" d="M11.9991 14.8943C13.8962 14.8943 15.4162 13.3427 15.4162 11.4207L15.4277 4.47356C15.4277 2.55153 13.8962 1 11.9991 1C10.1019 1 8.57052 2.55153 8.57052 4.47356V11.4207C8.57052 13.3427 10.1019 14.8943 11.9991 14.8943ZM10.6286 4.3586C10.6286 3.59442 11.2457 2.96918 12 2.96918C12.7543 2.96918 13.3715 3.59442 13.3715 4.3586L13.36 11.5373C13.36 12.3015 12.7543 12.9267 12 12.9267C11.2457 12.9267 10.6286 12.3015 10.6286 11.5373V4.3586ZM18.0572 11.4216C18.0572 14.8952 15.1543 17.3267 12 17.3267C8.84573 17.3267 5.94287 14.8952 5.94287 11.4216H4.00001C4.00001 15.3699 7.10858 18.6351 10.8572 19.2024V23.0002H13.1429V19.2024C16.8914 18.6466 20 15.3815 20 11.4216H18.0572Z" fill="white"/>
</svg>
