<svg width="24" height="24" viewBox="0 0 24 24" fill="none" xmlns="http://www.w3.org/2000/svg">
<path fill-rule="evenodd" clip-rule="evenodd" d="M19.8342 17.4814L21.6406 18.2766C21.9498 18.4127 22.3069 18.3835 22.5899 18.1989C22.8729 18.0143 23.0435 17.6992 23.0435 17.3614V7.48065C23.0435 7.14278 22.8729 6.82775 22.5899 6.64313C22.3069 6.45851 21.9498 6.42928 21.6406 6.5654L18.3671 8.00634V5.01048C18.3671 4.45819 17.9194 4.01048 17.3671 4.01048H6.36322L8.36322 6.01048H16.3671V9.53913C16.3671 9.87701 16.5378 10.192 16.8207 10.3767C17.1037 10.5613 17.4608 10.5905 17.77 10.4544L21.0435 9.01344V15.8286L17.77 14.3876C17.4608 14.2515 17.1037 14.2807 16.8207 14.4654C16.8202 14.4657 16.8197 14.4661 16.8191 14.4664L19.8342 17.4814ZM5.65777 6.01048H2.95652V18.0081H16.3671V16.7199L18.3671 18.7199V19.0081C18.3671 19.5604 17.9194 20.0081 17.3671 20.0081H1.95652C1.40424 20.0081 0.956522 19.5604 0.956522 19.0081V5.01048C0.956522 4.45819 1.40424 4.01048 1.95652 4.01048H3.65777L5.65777 6.01048Z" fill="white"/>
<path d="M2 2L20.9382 21.799" stroke="white" stroke-width="2"/>
</svg>
