<svg width="24" height="24" viewBox="0 0 24 24" fill="none" xmlns="http://www.w3.org/2000/svg">
<path fill-rule="evenodd" clip-rule="evenodd" d="M0.956522 5.01048C0.956522 4.45819 1.40424 4.01048 1.95652 4.01048H17.3671C17.9194 4.01048 18.3671 4.45819 18.3671 5.01048V8.00634L21.6406 6.5654C21.9498 6.42928 22.3069 6.45851 22.5899 6.64313C22.8729 6.82775 23.0435 7.14278 23.0435 7.48065V17.3614C23.0435 17.6992 22.8729 18.0143 22.5899 18.1989C22.3069 18.3835 21.9498 18.4127 21.6406 18.2766L18.3671 16.8357V19.0081C18.3671 19.5604 17.9194 20.0081 17.3671 20.0081H1.95652C1.40424 20.0081 0.956522 19.5604 0.956522 19.0081V5.01048ZM2.95652 6.01048V18.0081H16.3671V15.3029C16.3671 14.965 16.5378 14.65 16.8207 14.4654C17.1037 14.2807 17.4608 14.2515 17.77 14.3876L21.0435 15.8286V9.01344L17.77 10.4544C17.4608 10.5905 17.1037 10.5613 16.8207 10.3767C16.5378 10.192 16.3671 9.87701 16.3671 9.53913V6.01048H2.95652Z" fill="white"/>
</svg>
