<svg width="24" height="17" viewBox="0 0 24 17" fill="none" xmlns="http://www.w3.org/2000/svg">
<path fill-rule="evenodd" clip-rule="evenodd" d="M0.956543 1.0105C0.956543 0.458213 1.40426 0.010498 1.95654 0.010498H17.3672C17.9195 0.010498 18.3672 0.458213 18.3672 1.0105V4.00636L21.6406 2.56542C21.9499 2.4293 22.3069 2.45853 22.5899 2.64315C22.8729 2.82777 23.0435 3.1428 23.0435 3.48067V13.3614C23.0435 13.6993 22.8729 14.0143 22.5899 14.1989C22.3069 14.3835 21.9499 14.4128 21.6406 14.2766L18.3672 12.8357V15.0082C18.3672 15.5604 17.9195 16.0082 17.3672 16.0082H1.95654C1.40426 16.0082 0.956543 15.5604 0.956543 15.0082V1.0105ZM2.95654 2.0105V14.0082H16.3672V11.3029C16.3672 10.965 16.5378 10.65 16.8208 10.4654C17.1037 10.2808 17.4608 10.2515 17.7701 10.3876L21.0435 11.8286V5.01346L17.7701 6.4544C17.4608 6.59053 17.1037 6.56129 16.8208 6.37668C16.5378 6.19206 16.3672 5.87703 16.3672 5.53915V2.0105H2.95654Z" fill="black"/>
</svg>
